<svg xmlns="http://www.w3.org/2000/svg" xmlns:xlink="http://www.w3.org/1999/xlink" viewBox="0 0 157 168"><title>cat</title><g style="isolation:isolate"><path d="M317,397a64.08,64.08,0,0,1-64-64,65.61,65.61,0,0,1,4.43-24.41V263a5.13,5.13,0,0,1,8.76-3.63l19.9,19.9a68.59,68.59,0,0,1,14.61-4.43l.81-.15a85.53,85.53,0,0,1,11-1.21l1.69-.06c.93,0,1.88-.05,2.84-.05s1.91,0,2.84.05l1.68.06a85.5,85.5,0,0,1,11,1.21l.8.15a68.62,68.62,0,0,1,14.61,4.43l19.9-19.9a5.13,5.13,0,0,1,8.76,3.63v45.54A65.62,65.62,0,0,1,381,333,64.08,64.08,0,0,1,317,397Z" transform="translate(-237 -245.89)" style="fill:#464655"/><path d="M371.44,259.91a3.13,3.13,0,0,1,3.13,3.13V309A63.46,63.46,0,0,1,379,333a62,62,0,1,1-124,0,63.46,63.46,0,0,1,4.43-24V263a3.13,3.13,0,0,1,5.35-2.21l20.88,20.88a65.58,65.58,0,0,1,15.42-4.85l.78-.14a83.17,83.17,0,0,1,10.72-1.18h0l1.65-.06c.92,0,1.84-.05,2.78-.05s1.86,0,2.78.05l1.65.06h0a83.18,83.18,0,0,1,10.72,1.18l.78.14a65.58,65.58,0,0,1,15.42,4.85l20.88-20.88a3.13,3.13,0,0,1,2.21-.92m0-4a7.09,7.09,0,0,0-5,2.09l-19,19a71.38,71.38,0,0,0-13.78-4l-.82-.15a87.47,87.47,0,0,0-11-1.23h-.22l-1.7-.06c-1.13,0-2-.05-2.89-.05s-1.76,0-2.91.05l-1.67.06h-.08a87.36,87.36,0,0,0-11.19,1.24l-.83.15a71.37,71.37,0,0,0-13.77,4l-19-19a7.13,7.13,0,0,0-12.18,5V308.2A67.76,67.76,0,0,0,251,333a66,66,0,1,0,132,0,67.76,67.76,0,0,0-4.43-24.79V263a7.14,7.14,0,0,0-7.13-7.13Z" transform="translate(-237 -245.89)" style="fill:#fff"/><path d="M259.41,321.91V263a3.13,3.13,0,0,1,3.13-3.13h0a3.13,3.13,0,0,1,2.21.92l26.76,26.76Z" transform="translate(-237 -245.89)" style="fill:#e67332"/><path d="M374.57,321.91V263a3.13,3.13,0,0,0-3.13-3.13h0a3.13,3.13,0,0,0-2.21.92l-26.76,26.76Z" transform="translate(-237 -245.89)" style="fill:#e67332"/><path d="M379,333a62,62,0,1,1-124,0c0-34.25,22.87-57.58,62-57.58S379,298.74,379,333Z" transform="translate(-237 -245.89)" style="fill:#ff914b"/><path d="M331,351a13.3,13.3,0,0,0-14,5.63,13.29,13.29,0,1,0-1.62,16.67,2.25,2.25,0,0,1,3.24,0A13.29,13.29,0,1,0,331,351Z" transform="translate(-237 -245.89)" style="fill:#fff"/><path d="M308.09,353.74l6.2,8.68a3.32,3.32,0,0,0,5.41,0l6.2-8.68a3.32,3.32,0,0,0-2.7-5.25h-12.4A3.32,3.32,0,0,0,308.09,353.74Z" transform="translate(-237 -245.89)" style="fill:#e67332"/><path d="M330.28,276.39v18.95a4.43,4.43,0,0,0,8.86,0v-17A72.55,72.55,0,0,0,330.28,276.39Z" transform="translate(-237 -245.89)" style="fill:#e67332"/><path d="M317,275.41c-1.5,0-3,0-4.43.11v30.89a4.43,4.43,0,1,0,8.86,0V275.52C320,275.45,318.49,275.41,317,275.41Z" transform="translate(-237 -245.89)" style="fill:#e67332"/><path d="M294.85,278.31v17a4.43,4.43,0,0,0,8.86,0V276.39A72.53,72.53,0,0,0,294.85,278.31Z" transform="translate(-237 -245.89)" style="fill:#e67332"/><circle cx="40.13" cy="107.03" r="8.86" style="fill:#e67332"/><circle cx="119.85" cy="107.03" r="8.86" style="fill:#e67332"/><circle cx="104.35" cy="84.88" r="8.86" style="fill:#464655"/><circle cx="55.63" cy="84.88" r="8.86" style="fill:#464655"/></g></svg>